<?xml version="1.0" standalone="no"?>
<!DOCTYPE svg PUBLIC "-//W3C//DTD SVG 20010904//EN"
 "http://www.w3.org/TR/2001/REC-SVG-20010904/DTD/svg10.dtd">
<svg version="1.0" xmlns="http://www.w3.org/2000/svg"
 width="512.000000pt" height="512.000000pt" viewBox="0 0 512.000000 512.000000"
 preserveAspectRatio="xMidYMid meet">
<metadata>
Created by potrace 1.14, written by Peter Selinger 2001-2017
</metadata>
<g transform="translate(0.000000,512.000000) scale(0.100000,-0.100000)"
fill="#000000" stroke="none">
<path d="M2384 3347 c-3 -9 -1 -63 5 -121 12 -118 12 -118 -37 -198 -33 -55
-34 -62 -30 -125 7 -85 49 -186 75 -181 20 4 21 17 9 138 l-8 75 38 55 c48 70
53 119 26 229 -24 92 -41 133 -59 139 -7 2 -16 -3 -19 -11z"/>
<path d="M2544 3347 c-3 -9 -1 -63 5 -121 12 -118 12 -118 -37 -198 -33 -55
-34 -62 -30 -125 7 -85 49 -186 75 -181 20 4 21 17 9 138 l-8 75 38 55 c48 70
53 119 26 229 -24 92 -41 133 -59 139 -7 2 -16 -3 -19 -11z"/>
<path d="M2704 3347 c-3 -9 -1 -63 5 -121 12 -118 12 -118 -37 -198 -33 -55
-34 -62 -30 -125 7 -85 49 -186 75 -181 20 4 21 17 9 138 l-8 75 38 55 c48 70
53 119 26 229 -24 92 -41 133 -59 139 -7 2 -16 -3 -19 -11z"/>
<path d="M1289 2537 c-50 -33 -79 -82 -79 -132 0 -72 39 -342 75 -521 182
-898 557 -1439 1069 -1545 172 -35 371 -22 535 35 301 105 568 402 742 823
l34 83 112 0 c134 0 195 12 248 48 35 25 49 48 127 222 87 191 88 196 85 261
-7 112 -72 221 -154 255 -19 8 -69 14 -123 14 -89 0 -90 0 -85 23 11 51 35
251 35 296 0 56 -27 103 -79 138 l-34 23 -1237 0 -1237 0 -34 -23z m2451 -165
c0 -93 -67 -473 -120 -677 -110 -426 -262 -734 -469 -948 -176 -183 -348 -258
-591 -258 -248 0 -417 75 -600 267 -239 251 -424 684 -524 1226 -24 128 -56
353 -56 390 0 17 52 18 1180 18 1133 0 1180 -1 1180 -18z m282 -463 c23 -12
48 -66 48 -104 0 -32 -138 -342 -155 -349 -28 -10 -135 -18 -135 -10 -1 5 27
114 62 241 l63 233 48 0 c27 0 57 -5 69 -11z"/>
<path d="M1615 2055 c-32 -31 -31 -46 5 -205 133 -590 367 -1005 644 -1140
108 -53 181 -70 296 -70 115 0 188 17 296 70 262 128 494 524 629 1072 20 79
38 166 41 195 6 46 4 54 -19 77 l-26 26 -921 0 -921 0 -24 -25z"/>
</g>
</svg>
